<?xml version="1.0" encoding="utf-8" standalone="yes"?>
<!DOCTYPE svg PUBLIC "-//W3C//DTD SVG 1.1//EN" "http://www.w3.org/Graphics/SVG/1.1/DTD/svg11.dtd">
<svg width="852" height="456" viewBox="0 0 852 456" style="fill:none;stroke:none;fill-rule:evenodd;clip-rule:evenodd;stroke-linecap:round;stroke-linejoin:round;stroke-miterlimit:1.5;" version="1.1" xmlns="http://www.w3.org/2000/svg" xmlns:xlink="http://www.w3.org/1999/xlink"><style class="text-font-style fontImports" data-font-family="Roboto">@import url(https://fonts.googleapis.com/css2?family=Roboto:wght@400;700&amp;amp;display=block);</style><g id="items" style="isolation: isolate"><g id="blend" style="mix-blend-mode: normal"><g id="g-root-cp_1_g-1_1qbcypgflo5qf-fill" data-item-order="-289430" transform="translate(356.5999755859375, 122)"><g id="cp_1_g-1_1qbcypgflo5qf-fill-merged" stroke="none" fill="#4b533a"><g><path d="M50.9 10L10 94 H91.8L50.9 10 M62.4 10L103.3 94 H199.3L158.4 10 H62.4"></path></g></g></g><g id="g-root-cp_2_g-2_1qbcypgflo5qg-fill" data-item-order="-289426" transform="translate(208, 206)"><g id="cp_2_g-2_1qbcypgflo5qg-fill-merged" stroke="none" fill="#3b5649"><g><path d="M240.4 10 H158.6L117.7 94 H281.3L240.4 10 M146.9 10L106 94 H10L50.9 10 H146.9"></path></g></g></g><g id="g-root-cp_3_g-3_1lvjgl0flo6ip-fill" data-item-order="-289422" transform="translate(274.79998779296875, 290)"><g id="cp_3_g-3_1lvjgl0flo6ip-fill-merged" stroke="none" fill="#3e4e69"><g><path d="M214.5 10 H50.9L10 94 H255.4L214.5 10 M226.2 10L267.1 94 H363.1L322.2 10 H226.2"></path></g></g></g><g id="g-root-tx_jerarqua_1lvjgl0flo6iq-fill" data-item-order="0" transform="translate(218, 38)"><g id="tx_jerarqua_1lvjgl0flo6iq-fill-merged" stroke="none" fill="#f4f4f4"><g><text style="font-style: normal; font-variant-caps: normal; font-weight: bold; font-width: normal; font-size: 25px; line-height: normal; font-family: Roboto, sans-serif; font-size-adjust: none; font-kerning: auto; font-variant-alternates: normal; font-variant-ligatures: normal; font-variant-numeric: normal; font-variant-east-asian: normal; font-variant-position: normal; font-variant-emoji: normal; font-feature-settings: normal; font-optical-sizing: auto; font-variation-settings: normal; white-space: pre;"><tspan x="13.47" y="42" dominant-baseline="ideographic">Jerarquía de Automatización de IA</tspan></text></g></g></g><g id="g-root-tx_arquitec_1hiubw4flo7pl-fill" data-item-order="0" transform="translate(566, 98)"><g id="tx_arquitec_1hiubw4flo7pl-fill-merged" stroke="none" fill="#a6da37"><g><text style="font-style: normal; font-variant-caps: normal; font-weight: normal; font-width: normal; font-size: 20px; line-height: normal; font-family: Roboto, sans-serif; font-size-adjust: none; font-kerning: auto; font-variant-alternates: normal; font-variant-ligatures: normal; font-variant-numeric: normal; font-variant-east-asian: normal; font-variant-position: normal; font-variant-emoji: normal; font-feature-settings: normal; font-optical-sizing: auto; font-variation-settings: normal; white-space: pre;"><tspan x="12" y="34" dominant-baseline="ideographic">Arquitectura </tspan><tspan x="12" y="58" dominant-baseline="ideographic">RAG</tspan></text></g></g></g><g id="g-root-tx_1_dbq5kkflpkp7-fill" data-item-order="0" transform="translate(464, 152)"><g id="tx_1_dbq5kkflpkp7-fill-merged" stroke="none" fill="#a6da37"><g><text style="font-style: normal; font-variant-caps: normal; font-weight: normal; font-width: normal; font-size: 25px; line-height: normal; font-family: Roboto, sans-serif; font-size-adjust: none; font-kerning: auto; font-variant-alternates: normal; font-variant-ligatures: normal; font-variant-numeric: normal; font-variant-east-asian: normal; font-variant-position: normal; font-variant-emoji: normal; font-feature-settings: normal; font-optical-sizing: auto; font-variation-settings: normal; white-space: pre;"><tspan x="14.97" y="42" dominant-baseline="ideographic">1</tspan></text></g></g></g><g id="g-root-tx_sesumerg_zs6shgflo6wy-fill" data-item-order="0" transform="translate(566, 158)"><g id="tx_sesumerg_zs6shgflo6wy-fill-merged" stroke="none" fill="#f4f4f4"><g><text style="font-style: normal; font-variant-caps: normal; font-weight: normal; font-width: normal; font-size: 15px; line-height: normal; font-family: Roboto, sans-serif; font-size-adjust: none; font-kerning: auto; font-variant-alternates: normal; font-variant-ligatures: normal; font-variant-numeric: normal; font-variant-east-asian: normal; font-variant-position: normal; font-variant-emoji: normal; font-feature-settings: normal; font-optical-sizing: auto; font-variation-settings: normal; white-space: pre;"><tspan x="12" y="28" dominant-baseline="ideographic">Se sumerge en </tspan><tspan x="12" y="46" dominant-baseline="ideographic">documentos para </tspan><tspan x="12" y="64" dominant-baseline="ideographic">resolver problemas </tspan><tspan x="12" y="82" dominant-baseline="ideographic">complejos</tspan></text></g></g></g><g id="g-root-tx_asistent_zqbd84flo7wm-fill" data-item-order="0" transform="translate(86, 188)"><g id="tx_asistent_zqbd84flo7wm-fill-merged" stroke="none" fill="#43dd93"><g><text style="font-style: normal; font-variant-caps: normal; font-weight: normal; font-width: normal; font-size: 20px; line-height: normal; font-family: Roboto, sans-serif; font-size-adjust: none; font-kerning: auto; font-variant-alternates: normal; font-variant-ligatures: normal; font-variant-numeric: normal; font-variant-east-asian: normal; font-variant-position: normal; font-variant-emoji: normal; font-feature-settings: normal; font-optical-sizing: auto; font-variation-settings: normal; white-space: pre;"><tspan x="20" y="34" dominant-baseline="ideographic">Asistente </tspan><tspan x="45" y="58" dominant-baseline="ideographic">Virtual</tspan></text></g></g></g><g id="g-root-tx_resuelve_djubp0flo74f-fill" data-item-order="0" transform="translate(38, 248)"><g id="tx_resuelve_djubp0flo74f-fill-merged" stroke="none" fill="#f4f4f4"><g><text style="font-style: normal; font-variant-caps: normal; font-weight: normal; font-width: normal; font-size: 15px; line-height: normal; font-family: Roboto, sans-serif; font-size-adjust: none; font-kerning: auto; font-variant-alternates: normal; font-variant-ligatures: normal; font-variant-numeric: normal; font-variant-east-asian: normal; font-variant-position: normal; font-variant-emoji: normal; font-feature-settings: normal; font-optical-sizing: auto; font-variation-settings: normal; white-space: pre;"><tspan x="17" y="31" dominant-baseline="ideographic">Resuelve problemas </tspan><tspan x="65" y="49" dominant-baseline="ideographic">y automatiza </tspan><tspan x="90" y="67" dominant-baseline="ideographic">procesos</tspan></text></g></g></g><g id="g-root-tx_2_1uuau9gflo64o-fill" data-item-order="0" transform="translate(260, 236)"><g id="tx_2_1uuau9gflo64o-fill-merged" stroke="none" fill="#43dd93"><g><text style="font-style: normal; font-variant-caps: normal; font-weight: normal; font-width: normal; font-size: 25px; line-height: normal; font-family: Roboto, sans-serif; font-size-adjust: none; font-kerning: auto; font-variant-alternates: normal; font-variant-ligatures: normal; font-variant-numeric: normal; font-variant-east-asian: normal; font-variant-position: normal; font-variant-emoji: normal; font-feature-settings: normal; font-optical-sizing: auto; font-variation-settings: normal; white-space: pre;"><tspan x="14.97" y="42" dominant-baseline="ideographic">2</tspan></text></g></g></g><g id="g-root-tx_document_v98wxgflo6ir-fill" data-item-order="0" transform="translate(650, 272)"><g id="tx_document_v98wxgflo6ir-fill-merged" stroke="none" fill="#4f91fc"><g><text style="font-style: normal; font-variant-caps: normal; font-weight: normal; font-width: normal; font-size: 20px; line-height: normal; font-family: Roboto, sans-serif; font-size-adjust: none; font-kerning: auto; font-variant-alternates: normal; font-variant-ligatures: normal; font-variant-numeric: normal; font-variant-east-asian: normal; font-variant-position: normal; font-variant-emoji: normal; font-feature-settings: normal; font-optical-sizing: auto; font-variation-settings: normal; white-space: pre;"><tspan x="12" y="34" dominant-baseline="ideographic">Documentos </tspan><tspan x="12" y="58" dominant-baseline="ideographic">Internos</tspan></text></g></g></g><g id="g-root-tx_3_1hhldpwflo5jh-fill" data-item-order="0" transform="translate(548, 320)"><g id="tx_3_1hhldpwflo5jh-fill-merged" stroke="none" fill="#4f91fc"><g><text style="font-style: normal; font-variant-caps: normal; font-weight: normal; font-width: normal; font-size: 25px; line-height: normal; font-family: Roboto, sans-serif; font-size-adjust: none; font-kerning: auto; font-variant-alternates: normal; font-variant-ligatures: normal; font-variant-numeric: normal; font-variant-east-asian: normal; font-variant-position: normal; font-variant-emoji: normal; font-feature-settings: normal; font-optical-sizing: auto; font-variation-settings: normal; white-space: pre;"><tspan x="14.97" y="42" dominant-baseline="ideographic">3</tspan></text></g></g></g><g id="g-root-tx_protocol_92rvecflo5qk-fill" data-item-order="0" transform="translate(650, 332)"><g id="tx_protocol_92rvecflo5qk-fill-merged" stroke="none" fill="#f4f4f4"><g><text style="font-style: normal; font-variant-caps: normal; font-weight: normal; font-width: normal; font-size: 15px; line-height: normal; font-family: Roboto, sans-serif; font-size-adjust: none; font-kerning: auto; font-variant-alternates: normal; font-variant-ligatures: normal; font-variant-numeric: normal; font-variant-east-asian: normal; font-variant-position: normal; font-variant-emoji: normal; font-feature-settings: normal; font-optical-sizing: auto; font-variation-settings: normal; white-space: pre;"><tspan x="12" y="31" dominant-baseline="ideographic">Protocolos, </tspan><tspan x="12" y="49" dominant-baseline="ideographic">contratos, manuales, </tspan><tspan x="12" y="67" dominant-baseline="ideographic">inventarios</tspan></text></g></g></g><g id="g-root-cp_1_g-1_1qbcypgflo5qf-stroke" data-item-order="-289430" transform="translate(356.5999755859375, 122)"><g id="cp_1_g-1_1qbcypgflo5qf-stroke" fill="none" stroke-linecap="round" stroke-linejoin="round" stroke-miterlimit="4" stroke="#a6da37" stroke-width="2"><g><path d="M 50.9 10L 10 94L 91.8 94L 50.9 10ZM 62.4 10L 103.3 94L 199.3 94L 158.4 10L 62.4 10Z"></path></g></g></g><g id="g-root-cp_2_g-2_1qbcypgflo5qg-stroke" data-item-order="-289426" transform="translate(208, 206)"><g id="cp_2_g-2_1qbcypgflo5qg-stroke" fill="none" stroke-linecap="round" stroke-linejoin="round" stroke-miterlimit="4" stroke="#43dd93" stroke-width="2"><g><path d="M 240.4 10L 158.6 10L 117.7 94L 281.3 94L 240.4 10ZM 146.9 10L 106 94L 10 94L 50.9 10L 146.9 10Z"></path></g></g></g><g id="g-root-cp_3_g-3_1lvjgl0flo6ip-stroke" data-item-order="-289422" transform="translate(274.79998779296875, 290)"><g id="cp_3_g-3_1lvjgl0flo6ip-stroke" fill="none" stroke-linecap="round" stroke-linejoin="round" stroke-miterlimit="4" stroke="#4f91fc" stroke-width="2"><g><path d="M 214.5 10L 50.9 10L 10 94L 255.4 94L 214.5 10ZM 226.2 10L 267.1 94L 363.1 94L 322.2 10L 226.2 10Z"></path></g></g></g><g id="g-root-tx_jerarqua_1lvjgl0flo6iq-stroke" data-item-order="0" transform="translate(218, 38)"></g><g id="g-root-tx_arquitec_1hiubw4flo7pl-stroke" data-item-order="0" transform="translate(566, 98)"></g><g id="g-root-tx_1_dbq5kkflpkp7-stroke" data-item-order="0" transform="translate(464, 152)"></g><g id="g-root-tx_sesumerg_zs6shgflo6wy-stroke" data-item-order="0" transform="translate(566, 158)"></g><g id="g-root-tx_asistent_zqbd84flo7wm-stroke" data-item-order="0" transform="translate(86, 188)"></g><g id="g-root-tx_resuelve_djubp0flo74f-stroke" data-item-order="0" transform="translate(38, 248)"></g><g id="g-root-tx_2_1uuau9gflo64o-stroke" data-item-order="0" transform="translate(260, 236)"></g><g id="g-root-tx_document_v98wxgflo6ir-stroke" data-item-order="0" transform="translate(650, 272)"></g><g id="g-root-tx_3_1hhldpwflo5jh-stroke" data-item-order="0" transform="translate(548, 320)"></g><g id="g-root-tx_protocol_92rvecflo5qk-stroke" data-item-order="0" transform="translate(650, 332)"></g></g></g><path id="w1hi78p0ddg7bb" d="M65.283 12.757a.35.35 0 0 0 .584.157l5.203-5.141-6.183 3.523.396 1.461zm-2.216-11.7a.35.35 0 0 0-.522.305v3.111l3.276-1.868-2.754-1.548zm3.728 2.105l-4.25 2.421v2.445l6.391-3.644-2.141-1.222zm4.708 3.303a.35.35 0 0 0 0-.609l-1.592-.9-7.365 4.199v1.782a.35.35 0 0 0 .523.305l8.435-4.777z M44.542 2.513c0-.433.355-.783.792-.783s.792.35.792.783-.355.783-.792.783-.792-.35-.792-.783zm59.171 0c0-.433.355-.783.792-.783s.792.35.792.783-.355.783-.792.783-.792-.35-.792-.783zm-85.951 7.636h-1.27v-.487c-.276.201-.864.609-1.881.609-1.202 0-2.274-.794-2.137-2.078.118-1.106 1.153-1.584 1.848-1.727l2.17-.345c0-.539-.29-.956-1.064-1.006s-1.21.305-1.571 1.017l-1.124-.605c1.218-2.631 5.029-1.764 5.029.414v4.207zm-1.27-2.86c.006.396-.062 1.112-.819 1.59-.587.37-1.841.299-1.903-.395-.049-.555.461-.791.906-.898l1.816-.297zm72.662 2.86h-1.27v-.487c-.276.201-.864.609-1.881.609-1.202 0-2.274-.794-2.137-2.078.118-1.106 1.153-1.584 1.848-1.727l2.17-.345c0-.539-.29-.956-1.064-1.006s-1.21.305-1.571 1.017l-1.124-.605c1.218-2.631 5.029-1.764 5.029.414v4.207zm-1.27-2.86c.006.396-.062 1.112-.82 1.59-.587.37-1.841.299-1.903-.395-.049-.555.461-.791.906-.898l1.816-.297zM99.096 10.149H97.85v-8.45h1.246v4.895l2.68-2.559h1.738l-2.633 2.535 2.715 3.578h-1.556l-2.077-2.707-.867.844v1.863zm6.053-6.114h-1.255v6.113h1.255V4.035zm-59.2 0h-1.255v6.113h1.255V4.035zm5.584 6.113V1.697h1.255v2.695c.361-.346 1-.485 1.47-.485 1.452 0 2.477 1.082 2.457 2.448v3.792h-1.27v-3.68c0-.408-.214-1.339-1.315-1.339-.968 0-1.342.756-1.342 1.339v3.681h-1.255zm-4.76-4.894V4.039h.621a.45.45 0 0 0 .45-.45v-.855h1.251v1.305h1.309v1.215h-1.309v3.109c0 .293.105.664.648.664.365 0 .531-.035.736-.07v1.137s-.361.113-.857.113c-1.398 0-1.777-1.051-1.777-1.788V5.254h-1.071zM36.528 4.039h-1.394l2.191 6.106h1.125l1.234-3.918 1.238 3.918h1.129l2.188-6.106h-1.383l-1.359 3.93-1.256-3.93h-1.124l-1.242 3.957-1.348-3.957zM26.212 7.141c-.02 1.566 1.187 3.129 3.223 3.129 1.566 0 2.383-.918 2.734-1.719L31.172 8c-.315.399-.801 1.094-1.738 1.094-1.145 0-1.825-.781-1.891-1.52h4.625c.074-.284.148-.995-.03-1.559-.336-1.064-1.221-2.102-2.839-2.102s-3.088 1.152-3.088 3.227zm1.363-.75h3.348c-.055-.43-.566-1.301-1.623-1.301a1.79 1.79 0 0 0-1.725 1.301zm-8.758.75c.038 1.758 1.277 3.133 3.145 3.133 1.074 0 1.723-.477 1.961-.672v.547h1.242V1.703h-1.258v2.888c-.414-.36-1.062-.68-1.93-.68-1.91 0-3.198 1.473-3.16 3.23zm1.309-.08c0 1.119.723 1.978 1.836 1.978a1.88 1.88 0 0 0 1.94-1.904c0-1.371-1.011-1.99-1.972-1.99s-1.805.798-1.805 1.916zm76.683-.028C96.771 5.275 95.532 3.9 93.664 3.9c-1.074 0-1.723.477-1.961.672v-.547h-1.242v8.22h1.258V9.583c.414.36 1.063.68 1.93.68 1.91 0 3.198-1.473 3.16-3.23zm-1.309.08c0-1.119-.723-1.978-1.836-1.978a1.88 1.88 0 0 0-1.94 1.904c0 1.371 1.011 1.99 1.972 1.99S95.5 8.231 95.5 7.113zM106.441 10.173V4.036h1.254v.382c.361-.346 1-.485 1.47-.485 1.452 0 2.477 1.082 2.457 2.448v3.792h-1.27V6.492c0-.408-.214-1.339-1.315-1.339-.969 0-1.342.756-1.342 1.339v3.681h-1.254zm-30.383-.021V1.824h1.084l4.215 5.777V1.824h1.32v8.328h-1.094l-4.207-5.796v5.796h-1.319zM5.24 10.149H4V2.377h1.014l2.664 3.597 2.654-3.592h1.03v7.766h-1.256V4.762L7.678 8.068 5.24 4.742v5.407z" transform="translate(20, 422)" fill="#ababab88" stroke="none"></path></svg>