<?xml version="1.0" encoding="utf-8" standalone="yes"?>
<!DOCTYPE svg PUBLIC "-//W3C//DTD SVG 1.1//EN" "http://www.w3.org/Graphics/SVG/1.1/DTD/svg11.dtd">
<svg width="720" height="456" viewBox="0 0 720 456" style="fill:none;stroke:none;fill-rule:evenodd;clip-rule:evenodd;stroke-linecap:round;stroke-linejoin:round;stroke-miterlimit:1.5;" version="1.1" xmlns="http://www.w3.org/2000/svg" xmlns:xlink="http://www.w3.org/1999/xlink"><style class="text-font-style fontImports" data-font-family="Shantell Sans">@import url(https://fonts.googleapis.com/css2?family=Shantell+Sans:wght@300..800&amp;amp;display=block);</style><g id="items" style="isolation: isolate"><g id="blend" style="mix-blend-mode: normal"><g id="g-root-sy_1_cu_18jfibvb5ta19-fill" data-item-order="-27921" transform="translate(266, 207)"><g id="sy_1_cu_18jfibvb5ta19-fill-merged" stroke="none" fill="#346778"><g><path d="M34 163.183C34 168.05 36.795 171.989 40.632 173.916C43.826 175.52 47.742 175.728 51.367 173.916L69.999 164.6L64.632 161.916C60.795 159.989 58 156.05 58 151.183 V95.432C58 86.341 63.136 78.031 71.267 73.966L112.633 53.282C116.258 51.47 120.174 51.678 123.368 53.282L130 56.598 V34.016C130 29.148 127.205 25.209 123.368 23.282C120.144 21.677 116.244 21.477 112.633 23.282L47.267 55.966C39.136 60.031 34 68.341 34 77.432C34 68.341 39.136 60.031 47.267 55.966L112.633 23.282C116.244 21.477 120.144 21.677 123.331 23.264L99.368 11.282C96.174 9.678 92.258 9.47 88.633 11.282L23.267 43.966C15.136 48.031 10 56.341 10 65.432 V151.183C10 156.05 12.795 159.989 16.632 161.916L40.632 173.916C36.795 171.989 34 168.05 34 163.183 M123.331 23.264C123.344 23.27 123.356 23.276 123.368 23.282"></path></g></g></g><g id="g-root-sy_2_cu_143m07fb5tati-fill" data-item-order="-27917" transform="translate(314, 249)"><g id="sy_2_cu_143m07fb5tati-fill-merged" stroke="none" fill="#41735b"><g><path d="M34 121.183C34 126.05 36.795 129.99 40.632 131.916C43.826 133.52 47.742 133.728 51.367 131.916L69.999 122.6L64.632 119.916C60.795 117.99 58 114.05 58 109.183 V83.432C58 74.341 63.136 66.031 71.267 61.966L88.633 53.282C92.258 51.47 96.174 51.678 99.368 53.282L106 56.598 V34.016C106 29.148 103.205 25.209 99.368 23.282C96.144 21.677 92.244 21.477 88.633 23.282L47.267 43.966C39.136 48.031 34 56.341 34 65.432C34 56.341 39.136 48.031 47.267 43.966L88.633 23.282C92.244 21.477 96.144 21.677 99.331 23.264L75.368 11.282C72.174 9.678 68.258 9.47 64.633 11.282L23.267 31.966C15.136 36.031 10 44.341 10 53.432 V109.183C10 114.05 12.795 117.989 16.632 119.916L40.632 131.916C36.795 129.989 34 126.05 34 121.183 M99.331 23.264C99.344 23.27 99.356 23.276 99.368 23.282"></path></g></g></g><g id="g-root-sy_3_cu_143m07fb5tatj-fill" data-item-order="-27913" transform="translate(362, 291)"><g id="sy_3_cu_143m07fb5tatj-fill-merged" stroke="none" fill="#60703f"><g><path d="M34 79.183C34 84.051 36.796 87.991 40.633 89.917C43.827 91.52 47.742 91.728 51.367 89.916L68.733 81.233C76.864 77.167 82 68.857 82 59.766 V34.016C82 29.148 79.205 25.209 75.368 23.282C75.356 23.276 75.344 23.27 75.331 23.264C72.144 21.677 68.244 21.477 64.633 23.282L47.267 31.966C39.136 36.031 34 44.341 34 53.432C34 44.341 39.136 36.031 47.267 31.966L64.633 23.282C68.244 21.477 72.144 21.677 75.331 23.264L51.368 11.282C48.174 9.678 44.258 9.47 40.633 11.282L23.267 19.966C15.136 24.031 10 32.341 10 41.432 V67.183C10 72.05 12.795 75.989 16.632 77.916L40.633 89.917C36.796 87.991 34 84.051 34 79.183 M75.331 23.264C75.344 23.27 75.356 23.276 75.368 23.282"></path></g></g></g><g id="g-root-ic_chip_1ly0hajb5kv0g-fill" data-item-order="-2304" transform="translate(194, 158)"><g id="ic_chip_1ly0hajb5kv0g-fill-merged" stroke="none" fill="#1ac3fb"><g><path d="M14.86 32 H12C10.895 32 10 32.895 10 34C10 35.105 10.895 36 12 36 H14.86C15.965 36 16.86 35.105 16.86 34C16.86 32.895 15.965 32 14.86 32 M14.86 42 H12C10.895 42 10 42.895 10 44C10 45.105 10.895 46 12 46 H14.86C15.965 46 16.86 45.105 16.86 44C16.86 42.895 15.965 42 14.86 42 M14.86 23 H12C10.895 23 10 23.895 10 25C10 26.105 10.895 27 12 27 H14.86C15.965 27 16.86 26.105 16.86 25C16.86 23.895 15.965 23 14.86 23 M56 32 H53.14C52.035 32 51.14 32.895 51.14 34C51.14 35.105 52.035 36 53.14 36 H56C57.105 36 58 35.105 58 34C58 32.895 57.105 32 56 32 M53.14 27 H56C57.105 27 58 26.105 58 25C58 23.895 57.105 23 56 23 H53.14C52.035 23 51.14 23.895 51.14 25C51.14 26.105 52.035 27 53.14 27 M56 42 H53.14C52.035 42 51.14 42.895 51.14 44C51.14 45.105 52.035 46 53.14 46 H56C57.105 46 58 45.105 58 44C58 42.895 57.105 42 56 42 M34 16.88C35.105 16.88 36 15.985 36 14.88 V12C36 10.895 35.105 10 34 10C32.895 10 32 10.895 32 12 V14.88C32 15.985 32.895 16.88 34 16.88 M25 16.88C26.105 16.88 27 15.985 27 14.88 V12C27 10.895 26.105 10 25 10C23.895 10 23 10.895 23 12 V14.88C23 15.985 23.895 16.88 25 16.88 M43 16.88C44.105 16.88 45 15.985 45 14.88 V12C45 10.895 44.105 10 43 10C41.895 10 41 10.895 41 12 V14.88C41 15.985 41.895 16.88 43 16.88 M34 51.14C32.895 51.14 32 52.035 32 53.14 V56C32 57.105 32.895 58 34 58C35.105 58 36 57.105 36 56 V53.14C36 52.035 35.105 51.14 34 51.14 M43 51.14C41.895 51.14 41 52.035 41 53.14 V56C41 57.105 41.895 58 43 58C44.105 58 45 57.105 45 56 V53.14C45 52.035 44.105 51.14 43 51.14 M25 51.14C23.895 51.14 23 52.035 23 53.14 V56C23 57.105 23.895 58 25 58C26.105 58 27 57.105 27 56 V53.14C27 52.035 26.105 51.14 25 51.14 M46.14 19 H21.86C20.28 19 19 20.28 19 21.86 V46.14C19 47.72 20.28 49 21.86 49 H46.14C47.72 49 49 47.72 49 46.14 V21.86C49 20.28 47.72 19 46.14 19 M43 41C43 42.105 42.105 43 41 43 H36C34.895 43 34 42.105 34 41C34 39.895 34.895 39 36 39 H41C42.105 39 43 39.895 43 41"></path></g></g></g><g id="g-root-ic_spar_13z8rrfb5m7sx-fill" data-item-order="-2304" transform="translate(458, 158)"><g id="ic_spar_13z8rrfb5m7sx-fill-merged" stroke="none" fill="#43dd93"><g><path d="M14.488 11.61C12.831 11.61 11.488 12.953 11.488 14.61 V28.798C11.488 30.455 12.831 31.798 14.488 31.798 H28.676C30.333 31.798 31.676 30.455 31.676 28.798 V14.61C31.676 12.953 30.333 11.61 28.676 11.61 H14.488 M14.488 36.204C12.831 36.204 11.488 37.547 11.488 39.204 V53.39C11.488 55.047 12.831 56.39 14.488 56.39 H28.676C30.333 56.39 31.676 55.047 31.676 53.39 V39.204C31.676 37.547 30.333 36.204 28.676 36.204 H14.488 M39.324 36.204C37.667 36.204 36.324 37.547 36.324 39.204 V53.39C36.324 55.047 37.667 56.39 39.324 56.39 H53.512C55.169 56.39 56.512 55.047 56.512 53.39 V39.204C56.512 37.547 55.169 36.204 53.512 36.204 H39.324 M47.89 12.828C47.752 12.124 47.135 11.616 46.418 11.616C45.701 11.616 45.084 12.124 44.946 12.828C44.214 16.556 41.286 19.504 37.69 20.228C36.991 20.37 36.488 20.985 36.488 21.698C36.488 22.411 36.991 23.026 37.69 23.168C41.284 23.888 44.212 26.84 44.944 30.57C45.082 31.274 45.699 31.782 46.416 31.782C47.133 31.782 47.75 31.274 47.888 30.57C48.62 26.842 51.548 23.894 55.144 23.172C55.843 23.03 56.346 22.415 56.346 21.702C56.346 20.989 55.843 20.374 55.144 20.232C51.55 19.508 48.622 16.558 47.89 12.828"></path></g></g></g><g id="g-root-ic_vpn_1qdtw97b5t8un-fill" data-item-order="-2304" transform="translate(194, 302)"><g id="ic_vpn_1qdtw97b5t8un-fill-merged" stroke="none" fill="#a6da37"><g><path d="M18.78 14.288C17.852 12.431 15.769 11.455 13.748 11.932C11.727 12.408 10.3 14.212 10.3 16.288C10.3 18.364 11.727 20.168 13.748 20.644C15.769 21.121 17.852 20.145 18.78 18.288 H22.166L24.43 21.554L24.76 22.06C21.412 24.816 19.475 28.927 19.48 33.264C19.476 37.621 21.431 41.748 24.806 44.504L24.478 44.998L22.174 48.292 H17.698 V45.894C17.697 45.288 17.332 44.741 16.772 44.509C16.212 44.277 15.567 44.406 15.138 44.834L10.74 49.23C10.154 49.816 10.154 50.766 10.74 51.352L15.138 55.75C15.567 56.178 16.212 56.307 16.772 56.075C17.332 55.843 17.697 55.296 17.698 54.69 V52.29 H23.214C23.867 52.291 24.479 51.973 24.854 51.438L27.77 47.272L28.224 46.59C30.047 47.38 32.013 47.787 34 47.784C36.002 47.787 37.982 47.374 39.816 46.572L40.228 47.208L43.188 51.438C43.562 51.973 44.173 52.292 44.826 52.292 H50.302 V54.688C50.303 55.294 50.668 55.841 51.228 56.073C51.788 56.305 52.433 56.176 52.862 55.748L57.258 51.352C57.843 50.766 57.843 49.818 57.258 49.232L52.862 44.832C52.433 44.403 51.788 44.275 51.227 44.508C50.667 44.74 50.302 45.287 50.302 45.894 V48.292 H45.866L43.568 45.008L43.226 44.476C46.581 41.721 48.524 37.606 48.52 33.264C48.525 28.922 46.582 24.806 43.226 22.05L43.554 21.574L45.832 18.288 H49.218C50.146 20.145 52.229 21.121 54.25 20.644C56.271 20.168 57.698 18.364 57.698 16.288C57.698 14.212 56.271 12.408 54.25 11.932C52.229 11.455 50.146 12.431 49.218 14.288 H44.784C44.128 14.288 43.514 14.609 43.14 15.148L40.264 19.3L39.814 19.956C37.981 19.153 36.001 18.739 34 18.74C31.992 18.737 30.005 19.153 28.166 19.96L27.766 19.344C27.756 19.328 27.745 19.312 27.734 19.296L24.86 15.148C24.486 14.609 23.872 14.288 23.216 14.288 H18.782 M31.94 29.342 V30.456 H37.558C39.336 30.456 40.838 31.956 40.838 33.736 V38.136C40.838 39.916 39.334 41.416 37.558 41.416 H30.44C28.728 41.416 27.16 40.098 27.16 38.136 V33.736C27.16 32.494 27.892 31.386 28.94 30.832 V29.342C28.923 27.995 29.45 26.698 30.403 25.746C31.356 24.793 32.653 24.266 34 24.284C34.986 24.284 35.9 24.566 36.67 25.048C37.373 25.487 37.586 26.413 37.147 27.115C36.708 27.818 35.783 28.031 35.08 27.592C34.756 27.389 34.382 27.282 34 27.284C33.448 27.266 32.914 27.477 32.524 27.868C32.133 28.258 31.922 28.792 31.94 29.344"></path></g></g></g><g id="g-root-tx_transfor_143m07fb5tatk-fill" data-item-order="0" transform="translate(98, 38)"><g id="tx_transfor_143m07fb5tatk-fill-merged" stroke="none" fill="#f4f4f4"><g><text style="font-style: normal; font-variant-caps: normal; font-weight: bold; font-width: normal; font-size: 25px; line-height: normal; font-family: &quot;Shantell Sans&quot;, cursive; font-size-adjust: none; font-kerning: auto; font-variant-alternates: normal; font-variant-ligatures: normal; font-variant-numeric: normal; font-variant-east-asian: normal; font-variant-position: normal; font-variant-emoji: normal; font-feature-settings: normal; font-optical-sizing: auto; font-variation-settings: normal; white-space: pre;"><tspan x="54.02" y="42" dominant-baseline="ideographic">Transformando Documentos en </tspan><tspan x="171.02" y="72" dominant-baseline="ideographic">Conocimiento</tspan></text></g></g></g><g id="g-root-tx_arquitec_v9uf7vb5tamk-fill" data-item-order="0" transform="translate(38, 134)"><g id="tx_arquitec_v9uf7vb5tamk-fill-merged" stroke="none" fill="#1ac3fb"><g><text style="font-style: normal; font-variant-caps: normal; font-weight: bold; font-width: normal; font-size: 20px; line-height: normal; font-family: &quot;Shantell Sans&quot;, cursive; font-size-adjust: none; font-kerning: auto; font-variant-alternates: normal; font-variant-ligatures: normal; font-variant-numeric: normal; font-variant-east-asian: normal; font-variant-position: normal; font-variant-emoji: normal; font-feature-settings: normal; font-optical-sizing: auto; font-variation-settings: normal; white-space: pre;"><tspan x="30" y="35" dominant-baseline="ideographic">Arquitectura </tspan><tspan x="138" y="59" dominant-baseline="ideographic">de </tspan><tspan x="12" y="83" dominant-baseline="ideographic">Microservicios</tspan></text></g></g></g><g id="g-root-tx_iagenera_hz0dxnb5t91p-fill" data-item-order="0" transform="translate(518, 182)"><g id="tx_iagenera_hz0dxnb5t91p-fill-merged" stroke="none" fill="#43dd93"><g><text style="font-style: normal; font-variant-caps: normal; font-weight: bold; font-width: normal; font-size: 20px; line-height: normal; font-family: &quot;Shantell Sans&quot;, cursive; font-size-adjust: none; font-kerning: auto; font-variant-alternates: normal; font-variant-ligatures: normal; font-variant-numeric: normal; font-variant-east-asian: normal; font-variant-position: normal; font-variant-emoji: normal; font-feature-settings: normal; font-optical-sizing: auto; font-variation-settings: normal; white-space: pre;"><tspan x="12" y="37" dominant-baseline="ideographic">IA Generativa</tspan></text></g></g></g><g id="g-root-tx_descompo_dhbgjvb5tatl-fill" data-item-order="0" transform="translate(14, 218)"><g id="tx_descompo_dhbgjvb5tatl-fill-merged" stroke="none" fill="#f4f4f4"><g><text style="font-style: normal; font-variant-caps: normal; font-weight: normal; font-width: normal; font-size: 15px; line-height: normal; font-family: &quot;Shantell Sans&quot;, cursive; font-size-adjust: none; font-kerning: auto; font-variant-alternates: normal; font-variant-ligatures: normal; font-variant-numeric: normal; font-variant-east-asian: normal; font-variant-position: normal; font-variant-emoji: normal; font-feature-settings: normal; font-optical-sizing: auto; font-variation-settings: normal; white-space: pre;"><tspan x="79.02" y="38" dominant-baseline="ideographic">Descomponiendo </tspan><tspan x="39.02" y="56" dominant-baseline="ideographic">sistemas complejos en </tspan><tspan x="30.02" y="74" dominant-baseline="ideographic">servicios más pequeños</tspan></text></g></g></g><g id="g-root-tx_utilizan_1urrz4bb5t9tu-fill" data-item-order="0" transform="translate(518, 218)"><g id="tx_utilizan_1urrz4bb5t9tu-fill-merged" stroke="none" fill="#f4f4f4"><g><text style="font-style: normal; font-variant-caps: normal; font-weight: normal; font-width: normal; font-size: 15px; line-height: normal; font-family: &quot;Shantell Sans&quot;, cursive; font-size-adjust: none; font-kerning: auto; font-variant-alternates: normal; font-variant-ligatures: normal; font-variant-numeric: normal; font-variant-east-asian: normal; font-variant-position: normal; font-variant-emoji: normal; font-feature-settings: normal; font-optical-sizing: auto; font-variation-settings: normal; white-space: pre;"><tspan x="12" y="31" dominant-baseline="ideographic">Utilizando IA para crear </tspan><tspan x="12" y="49" dominant-baseline="ideographic">nuevos conocimientos</tspan></text></g></g></g><g id="g-root-tx_conector_4njvkbb5tamm-fill" data-item-order="0" transform="translate(2, 301.99993896484375)"><g id="tx_conector_4njvkbb5tamm-fill-merged" stroke="none" fill="#a6da37"><g><text style="font-style: normal; font-variant-caps: normal; font-weight: bold; font-width: normal; font-size: 20px; line-height: normal; font-family: &quot;Shantell Sans&quot;, cursive; font-size-adjust: none; font-kerning: auto; font-variant-alternates: normal; font-variant-ligatures: normal; font-variant-numeric: normal; font-variant-east-asian: normal; font-variant-position: normal; font-variant-emoji: normal; font-feature-settings: normal; font-optical-sizing: auto; font-variation-settings: normal; white-space: pre;"><tspan x="72" y="35" dominant-baseline="ideographic">Conectores </tspan><tspan x="105" y="59" dominant-baseline="ideographic">Seguros</tspan></text></g></g></g><g id="g-root-tx_aseguran_18laxl7b5t91n-fill" data-item-order="0" transform="translate(14, 361.99993896484375)"><g id="tx_aseguran_18laxl7b5t91n-fill-merged" stroke="none" fill="#f4f4f4"><g><text style="font-style: normal; font-variant-caps: normal; font-weight: normal; font-width: normal; font-size: 15px; line-height: normal; font-family: &quot;Shantell Sans&quot;, cursive; font-size-adjust: none; font-kerning: auto; font-variant-alternates: normal; font-variant-ligatures: normal; font-variant-numeric: normal; font-variant-east-asian: normal; font-variant-position: normal; font-variant-emoji: normal; font-feature-settings: normal; font-optical-sizing: auto; font-variation-settings: normal; white-space: pre;"><tspan x="17" y="32" dominant-baseline="ideographic">Asegurando el acceso </tspan><tspan x="23" y="50" dominant-baseline="ideographic">a los documentos sin </tspan><tspan x="110" y="68" dominant-baseline="ideographic">moverlos</tspan></text></g></g></g><g id="g-root-sy_1_cu_18jfibvb5ta19-stroke" data-item-order="-27921" transform="translate(266, 207)"><g id="sy_1_cu_18jfibvb5ta19-stroke" fill="none" stroke-linecap="round" stroke-linejoin="round" stroke-miterlimit="4" stroke="#2c2c2c" stroke-width="2"><g><path d="M 88.6334 11.282415L 23.2669 43.965615C 15.1361 48.031115 10 56.341415 10 65.431915L 10 151.182615C 10 156.050315 12.7952 159.989415 16.6315 161.915815L 40.6315 173.915815C 36.7952 171.989415 34 168.050315 34 163.182615L 34 77.431915C 34 68.341415 39.1361 60.031115 47.2669 55.965615L 112.6334 23.282415C 116.2443 21.476915 120.1438 21.676915 123.3311 23.263715L 99.3685 11.282415C 96.1743 9.678415 92.2585 9.469815 88.6334 11.282415ZM 123.3685 23.282415L 123.3311 23.263715C 123.3436 23.269915 123.356 23.276115 123.3685 23.282415ZM 112.6334 23.282315L 47.2669 55.965615C 39.1361 60.031015 34 68.341415 34 77.431915L 34 163.182615C 34 168.050315 36.7952 171.989415 40.6315 173.915815C 43.8257 175.519715 47.7415 175.728315 51.3666 173.915815L 69.999 164.599515L 64.6315 161.915815C 60.7952 159.989415 58 156.050415 58 151.182715L 58 95.431915C 58 86.341415 63.1361 78.031015 71.2669 73.965615L 112.6335 53.282315C 116.2585 51.469815 120.1743 51.678415 123.3685 53.282315L 130 56.598115L 130 34.015515C 130 29.147815 127.2048 25.208715 123.3685 23.282315L 123.3311 23.263715C 120.1438 21.676815 116.2443 21.476915 112.6334 23.282315ZM 123.3685 23.282315C 123.356 23.276115 123.3436 23.269915 123.3311 23.263715"></path></g></g></g><g id="g-root-sy_2_cu_143m07fb5tati-stroke" data-item-order="-27917" transform="translate(314, 249)"><g id="sy_2_cu_143m07fb5tati-stroke" fill="none" stroke-linecap="round" stroke-linejoin="round" stroke-miterlimit="4" stroke="#2c2c2c" stroke-width="2"><g><path d="M 64.6335 11.282415L 23.2669 31.965615C 15.1361 36.031115 10 44.341415 10 53.431915L 10 109.182715C 10 114.050415 12.7952 117.989415 16.6315 119.915815L 40.6315 131.915815C 36.7952 129.989415 34 126.050415 34 121.182715L 34 65.431915C 34 56.341415 39.1361 48.031115 47.2669 43.965615L 88.6335 23.282415C 92.2443 21.476915 96.1438 21.676815 99.3311 23.263615L 75.3685 11.282415C 72.1743 9.678415 68.2585 9.469815 64.6335 11.282415ZM 99.3685 23.282415L 99.3311 23.263615C 99.3436 23.269915 99.356 23.276115 99.3685 23.282415ZM 88.6335 23.282415L 47.2669 43.965615C 39.1361 48.031115 34 56.341415 34 65.431915L 34 121.182715C 34 126.050415 36.7952 129.989515 40.6315 131.915815C 43.8257 133.519715 47.7415 133.728315 51.3665 131.915815L 69.999 122.599615L 64.6315 119.915815C 60.7952 117.989515 58 114.050415 58 109.182715L 58 83.431915C 58 74.341415 63.1361 66.031115 71.2669 61.965615L 88.6335 53.282415C 92.2585 51.469815 96.1743 51.678415 99.3685 53.282415L 106 56.598115L 106 34.015515C 106 29.147815 103.2048 25.208715 99.3685 23.282415L 99.3311 23.263715C 96.1438 21.676815 92.2443 21.476915 88.6335 23.282415ZM 99.3685 23.282415C 99.356 23.276115 99.3436 23.269915 99.3311 23.263715"></path></g></g></g><g id="g-root-sy_3_cu_143m07fb5tatj-stroke" data-item-order="-27913" transform="translate(362, 291)"><g id="sy_3_cu_143m07fb5tatj-stroke" fill="none" stroke-linecap="round" stroke-linejoin="round" stroke-miterlimit="4" stroke="#2c2c2c" stroke-width="2"><g><path d="M 40.6335 11.282415L 23.2669 19.965615C 15.1361 24.031115 10 32.341415 10 41.431915L 10 67.182715C 10 72.050415 12.7952 75.989415 16.6315 77.915815L 40.6335 89.916815C 36.7962 87.990715 34 84.051215 34 79.182715L 34 53.431915C 34 44.341415 39.1361 36.031115 47.2669 31.965615L 64.6335 23.282415C 68.2444 21.476915 72.1438 21.676915 75.3311 23.263715L 51.3685 11.282415C 48.1743 9.678415 44.2585 9.469815 40.6335 11.282415ZM 75.3685 23.282415L 75.3311 23.263715C 75.3436 23.269915 75.356 23.276115 75.3685 23.282415ZM 34 53.431915C 34 44.341415 39.1361 36.031015 47.2669 31.965615L 64.6335 23.282315C 68.2444 21.476915 72.1438 21.676815 75.3311 23.263715C 75.3436 23.269915 75.356 23.276115 75.3685 23.282315C 79.2048 25.208715 82 29.147815 82 34.015515L 82 59.766315C 82 68.856815 76.8639 77.167115 68.7331 81.232515L 51.3665 89.915815C 47.7422 91.728015 43.8273 91.519815 40.6335 89.916715C 36.7962 87.990715 34 84.051215 34 79.182715L 34 53.431915ZM 75.3685 23.282315L 75.3311 23.263715"></path></g></g></g><g id="g-root-ic_chip_1ly0hajb5kv0g-stroke" data-item-order="-2304" transform="translate(194, 158)"></g><g id="g-root-ic_spar_13z8rrfb5m7sx-stroke" data-item-order="-2304" transform="translate(458, 158)"></g><g id="g-root-ic_vpn_1qdtw97b5t8un-stroke" data-item-order="-2304" transform="translate(194, 302)"></g><g id="g-root-tx_transfor_143m07fb5tatk-stroke" data-item-order="0" transform="translate(98, 38)"></g><g id="g-root-tx_arquitec_v9uf7vb5tamk-stroke" data-item-order="0" transform="translate(38, 134)"></g><g id="g-root-tx_iagenera_hz0dxnb5t91p-stroke" data-item-order="0" transform="translate(518, 182)"></g><g id="g-root-tx_descompo_dhbgjvb5tatl-stroke" data-item-order="0" transform="translate(14, 218)"></g><g id="g-root-tx_utilizan_1urrz4bb5t9tu-stroke" data-item-order="0" transform="translate(518, 218)"></g><g id="g-root-tx_conector_4njvkbb5tamm-stroke" data-item-order="0" transform="translate(2, 301.99993896484375)"></g><g id="g-root-tx_aseguran_18laxl7b5t91n-stroke" data-item-order="0" transform="translate(14, 361.99993896484375)"></g></g></g><path id="wdetnffabugwe" d="M65.283 12.757a.35.35 0 0 0 .584.157l5.203-5.141-6.183 3.523.396 1.461zm-2.216-11.7a.35.35 0 0 0-.522.305v3.111l3.276-1.868-2.754-1.548zm3.728 2.105l-4.25 2.421v2.445l6.391-3.644-2.141-1.222zm4.708 3.303a.35.35 0 0 0 0-.609l-1.592-.9-7.365 4.199v1.782a.35.35 0 0 0 .523.305l8.435-4.777z M44.542 2.513c0-.433.355-.783.792-.783s.792.35.792.783-.355.783-.792.783-.792-.35-.792-.783zm59.171 0c0-.433.355-.783.792-.783s.792.35.792.783-.355.783-.792.783-.792-.35-.792-.783zm-85.951 7.636h-1.27v-.487c-.276.201-.864.609-1.881.609-1.202 0-2.274-.794-2.137-2.078.118-1.106 1.153-1.584 1.848-1.727l2.17-.345c0-.539-.29-.956-1.064-1.006s-1.21.305-1.571 1.017l-1.124-.605c1.218-2.631 5.029-1.764 5.029.414v4.207zm-1.27-2.86c.006.396-.062 1.112-.819 1.59-.587.37-1.841.299-1.903-.395-.049-.555.461-.791.906-.898l1.816-.297zm72.662 2.86h-1.27v-.487c-.276.201-.864.609-1.881.609-1.202 0-2.274-.794-2.137-2.078.118-1.106 1.153-1.584 1.848-1.727l2.17-.345c0-.539-.29-.956-1.064-1.006s-1.21.305-1.571 1.017l-1.124-.605c1.218-2.631 5.029-1.764 5.029.414v4.207zm-1.27-2.86c.006.396-.062 1.112-.82 1.59-.587.37-1.841.299-1.903-.395-.049-.555.461-.791.906-.898l1.816-.297zM99.096 10.149H97.85v-8.45h1.246v4.895l2.68-2.559h1.738l-2.633 2.535 2.715 3.578h-1.556l-2.077-2.707-.867.844v1.863zm6.053-6.114h-1.255v6.113h1.255V4.035zm-59.2 0h-1.255v6.113h1.255V4.035zm5.584 6.113V1.697h1.255v2.695c.361-.346 1-.485 1.47-.485 1.452 0 2.477 1.082 2.457 2.448v3.792h-1.27v-3.68c0-.408-.214-1.339-1.315-1.339-.968 0-1.342.756-1.342 1.339v3.681h-1.255zm-4.76-4.894V4.039h.621a.45.45 0 0 0 .45-.45v-.855h1.251v1.305h1.309v1.215h-1.309v3.109c0 .293.105.664.648.664.365 0 .531-.035.736-.07v1.137s-.361.113-.857.113c-1.398 0-1.777-1.051-1.777-1.788V5.254h-1.071zM36.528 4.039h-1.394l2.191 6.106h1.125l1.234-3.918 1.238 3.918h1.129l2.188-6.106h-1.383l-1.359 3.93-1.256-3.93h-1.124l-1.242 3.957-1.348-3.957zM26.212 7.141c-.02 1.566 1.187 3.129 3.223 3.129 1.566 0 2.383-.918 2.734-1.719L31.172 8c-.315.399-.801 1.094-1.738 1.094-1.145 0-1.825-.781-1.891-1.52h4.625c.074-.284.148-.995-.03-1.559-.336-1.064-1.221-2.102-2.839-2.102s-3.088 1.152-3.088 3.227zm1.363-.75h3.348c-.055-.43-.566-1.301-1.623-1.301a1.79 1.79 0 0 0-1.725 1.301zm-8.758.75c.038 1.758 1.277 3.133 3.145 3.133 1.074 0 1.723-.477 1.961-.672v.547h1.242V1.703h-1.258v2.888c-.414-.36-1.062-.68-1.93-.68-1.91 0-3.198 1.473-3.16 3.23zm1.309-.08c0 1.119.723 1.978 1.836 1.978a1.88 1.88 0 0 0 1.94-1.904c0-1.371-1.011-1.99-1.972-1.99s-1.805.798-1.805 1.916zm76.683-.028C96.771 5.275 95.532 3.9 93.664 3.9c-1.074 0-1.723.477-1.961.672v-.547h-1.242v8.22h1.258V9.583c.414.36 1.063.68 1.93.68 1.91 0 3.198-1.473 3.16-3.23zm-1.309.08c0-1.119-.723-1.978-1.836-1.978a1.88 1.88 0 0 0-1.94 1.904c0 1.371 1.011 1.99 1.972 1.99S95.5 8.231 95.5 7.113zM106.441 10.173V4.036h1.254v.382c.361-.346 1-.485 1.47-.485 1.452 0 2.477 1.082 2.457 2.448v3.792h-1.27V6.492c0-.408-.214-1.339-1.315-1.339-.969 0-1.342.756-1.342 1.339v3.681h-1.254zm-30.383-.021V1.824h1.084l4.215 5.777V1.824h1.32v8.328h-1.094l-4.207-5.796v5.796h-1.319zM5.24 10.149H4V2.377h1.014l2.664 3.597 2.654-3.592h1.03v7.766h-1.256V4.762L7.678 8.068 5.24 4.742v5.407z" transform="translate(584, 422)" fill="#ababab88" stroke="none"></path></svg>